<?xml version="1.0" encoding="UTF-8"?>
<svg width="1200pt" height="1200pt" version="1.1" viewBox="0 0 1200 1200" xmlns="http://www.w3.org/2000/svg">
 <defs>
  <clipPath id="a">
   <path d="m222.14 240h755.71v720h-755.71z"/>
  </clipPath>
 </defs>
 <path d="m1200 600c0 214.36-114.36 412.44-300 519.62-185.64 107.18-414.36 107.18-600 0-185.64-107.18-300-305.26-300-519.62s114.36-412.44 300-519.62c185.64-107.18 414.36-107.18 600 0 185.64 107.18 300 305.26 300 519.62" fill="#e57599"/>
 <g clip-path="url(#a)">
  <path d="m600 240.06c3.2578 309.45 32.574 329 188.93 136.81-156.36 192.19-127.04 211.73 188.93 136.81-315.96 74.922-329 110.75-71.664 224.76-257.33-114.01-267.11-81.434-71.664 221.5-195.44-302.94-231.27-302.94-234.53 0 3.2578-302.94-29.316-302.94-234.53 0 205.21-302.94 192.19-335.51-71.664-221.5 263.85-114.01 254.08-149.84-71.664-224.76 325.74 74.922 355.05 55.375 188.93-136.81 166.12 192.19 192.19 172.64 188.93-136.81z" fill-rule="evenodd"/>
 </g>
 <path d="m502.28 298.69c0 8.9961-7.293 16.289-16.289 16.289-8.9961 0-16.285-7.293-16.285-16.289 0-8.9922 7.2891-16.285 16.285-16.285 8.9961 0 16.289 7.293 16.289 16.285" fill-rule="evenodd"/>
 <path d="m684.7 344.3c0 8.9961-7.293 16.285-16.289 16.285s-16.285-7.2891-16.285-16.285 7.2891-16.289 16.285-16.289 16.289 7.293 16.289 16.289" fill-rule="evenodd"/>
 <path d="m795.45 432.25c0 5.3984-4.375 9.7734-9.7734 9.7734-5.3945 0-9.7695-4.375-9.7695-9.7734 0-5.3984 4.375-9.7734 9.7695-9.7734 5.3984 0 9.7734 4.375 9.7734 9.7734" fill-rule="evenodd"/>
 <path d="m411.07 774.27c0 5.3945-4.375 9.7695-9.7734 9.7695-5.3984 0-9.7734-4.375-9.7734-9.7695 0-5.3984 4.375-9.7734 9.7734-9.7734 5.3984 0 9.7734 4.375 9.7734 9.7734" fill-rule="evenodd"/>
 <path d="m264.49 692.84c0 5.3984-4.375 9.7734-9.7734 9.7734s-9.7734-4.375-9.7734-9.7734c0-5.3945 4.375-9.7695 9.7734-9.7695s9.7734 4.375 9.7734 9.7695" fill-rule="evenodd"/>
 <path d="m821.5 754.73c0 8.9961-7.293 16.289-16.285 16.289-8.9961 0-16.289-7.293-16.289-16.289 0-8.9922 7.293-16.285 16.289-16.285 8.9922 0 16.285 7.293 16.285 16.285" fill-rule="evenodd"/>
 <path d="m727.04 849.19c0 14.395-11.668 26.059-26.059 26.059s-26.059-11.664-26.059-26.059c0-14.391 11.668-26.059 26.059-26.059s26.059 11.668 26.059 26.059" fill-rule="evenodd"/>
 <path d="m316.61 806.85c0 14.391-11.668 26.059-26.059 26.059-14.395 0-26.059-11.668-26.059-26.059 0-14.395 11.664-26.062 26.059-26.062 14.391 0 26.059 11.668 26.059 26.062" fill-rule="evenodd"/>
 <path d="m528.34 862.22c0 5.3945-4.375 9.7695-9.7734 9.7695-5.3945 0-9.7734-4.375-9.7734-9.7695 0-5.3984 4.3789-9.7734 9.7734-9.7734 5.3984 0 9.7734 4.375 9.7734 9.7734" fill-rule="evenodd"/>
 <path d="m661.89 819.88c0 5.3984-4.375 9.7734-9.7695 9.7734-5.3984 0-9.7734-4.375-9.7734-9.7734s4.375-9.7734 9.7734-9.7734c5.3945 0 9.7695 4.375 9.7695 9.7734" fill-rule="evenodd"/>
 <path d="m860.59 878.51c0 5.3984-4.375 9.7734-9.7734 9.7734-5.3984 0-9.7734-4.375-9.7734-9.7734 0-5.3945 4.375-9.7734 9.7734-9.7734 5.3984 0 9.7734 4.3789 9.7734 9.7734" fill-rule="evenodd"/>
 <path d="m886.65 608.14c0 5.3984-4.375 9.7734-9.7734 9.7734-5.3945 0-9.7695-4.375-9.7695-9.7734 0-5.3945 4.375-9.7734 9.7695-9.7734 5.3984 0 9.7734 4.3789 9.7734 9.7734" fill-rule="evenodd"/>
 <path d="m339.41 422.47c0 14.395-11.668 26.059-26.059 26.059-14.391 0-26.059-11.664-26.059-26.059 0-14.391 11.668-26.059 26.059-26.059 14.391 0 26.059 11.668 26.059 26.059" fill-rule="evenodd"/>
</svg>
